<?xml version="1.0" standalone="no"?>
<!DOCTYPE svg PUBLIC "-//W3C//DTD SVG 20010904//EN"
 "http://www.w3.org/TR/2001/REC-SVG-20010904/DTD/svg10.dtd">
<svg version="1.0" xmlns="http://www.w3.org/2000/svg"
 width="1024.000000pt" height="1024.000000pt" viewBox="0 0 1024.000000 1024.000000"
 preserveAspectRatio="xMidYMid meet">

<g transform="translate(0.000000,1024.000000) scale(0.100000,-0.100000)"
fill="#000000" stroke="none">
<path d="M7840 10193 c-392 -51 -767 -248 -1113 -583 -370 -358 -634 -786
-825 -1340 -57 -167 -96 -323 -87 -351 8 -24 9 -25 -104 12 -214 68 -404 94
-640 86 -174 -6 -269 -19 -428 -62 -107 -28 -106 -28 -99 -16 12 18 -105 303
-206 505 -188 375 -529 796 -858 1060 -259 208 -611 396 -855 457 -103 26
-497 38 -650 20 -176 -21 -348 -116 -526 -291 -184 -180 -301 -411 -354 -695
-23 -119 -31 -449 -16 -587 51 -445 234 -924 512 -1339 190 -283 607 -702 879
-884 36 -24 117 -73 180 -110 63 -37 119 -70 124 -75 5 -5 -21 -96 -57 -207
-101 -306 -178 -639 -222 -958 -12 -88 -21 -122 -33 -129 -9 -5 -76 -50 -150
-98 -441 -296 -777 -662 -973 -1062 -196 -401 -251 -820 -163 -1238 66 -312
222 -629 451 -913 101 -125 336 -355 473 -461 646 -502 1476 -807 2480 -911
232 -24 838 -24 1070 0 955 99 1732 372 2375 833 209 151 450 377 595 559 631
795 631 1765 0 2560 -165 208 -432 450 -685 621 l-141 95 -17 128 c-41 315
-122 666 -226 980 -49 149 -63 201 -52 201 25 0 243 120 356 195 947 638 1515
2043 1239 3064 -70 258 -185 463 -355 631 -150 148 -321 242 -521 286 -72 16
-309 27 -378 17z m0 -403 c-25 -4 -49 -4 -54 1 -6 5 12 8 45 8 l54 -2 -45 -7z
m304 -1 c-5 -9 4 -10 30 -5 29 6 46 2 72 -14 20 -11 40 -18 45 -15 5 4 6 0 4
-7 -4 -9 2 -14 14 -14 11 0 17 4 15 8 -11 18 16 7 29 -12 8 -11 17 -17 20 -13
4 3 7 1 7 -6 0 -7 5 -9 12 -5 6 4 8 3 5 -3 -9 -15 19 -37 38 -29 9 3 23 -6 37
-24 11 -16 24 -27 28 -25 4 3 14 -3 21 -12 10 -12 10 -14 2 -9 -7 4 -13 2 -13
-3 0 -6 8 -11 17 -11 9 0 14 -3 10 -6 -8 -9 18 -34 36 -34 8 0 21 -8 28 -17
13 -17 12 -17 -6 -4 -11 7 -2 -3 20 -22 22 -20 41 -45 41 -57 2 -36 4 -39 25
-45 11 -4 18 -9 15 -12 -3 -3 3 -13 12 -22 10 -9 13 -14 7 -11 -6 3 -4 -2 5
-10 8 -8 16 -26 18 -40 1 -13 8 -29 14 -35 8 -7 9 -6 3 4 -5 9 -4 12 3 7 6 -4
8 -14 5 -23 -5 -12 -3 -14 6 -8 10 5 11 2 6 -14 -3 -11 -2 -21 3 -21 5 0 12
-8 16 -17 3 -10 9 -24 12 -32 4 -9 2 -11 -5 -7 -7 5 -9 1 -5 -8 3 -9 11 -13
16 -10 6 4 8 -1 4 -14 -4 -11 -2 -23 4 -27 6 -4 8 -15 5 -26 -4 -10 -2 -19 4
-19 20 0 31 -67 34 -210 1 -47 7 -78 15 -83 6 -4 12 -25 11 -45 -1 -33 -2 -34
-9 -12 -5 15 -8 -33 -8 -120 0 -87 3 -135 8 -120 l8 25 1 -27 c1 -34 -9 -59
-20 -52 -6 3 -7 -4 -4 -18 3 -13 2 -43 -3 -66 -7 -29 -7 -40 1 -35 6 4 7 -4 2
-23 -5 -16 -8 -45 -7 -64 1 -21 -1 -30 -6 -22 -6 8 -12 1 -19 -23 -6 -19 -8
-35 -4 -35 3 0 5 -20 3 -45 -2 -25 -9 -45 -14 -45 -6 0 -8 -13 -5 -32 3 -18 3
-27 0 -20 -10 24 -22 12 -13 -13 10 -26 4 -55 -11 -55 -4 0 -6 -7 -3 -15 4 -8
1 -22 -6 -30 -6 -8 -9 -19 -5 -25 4 -6 0 -17 -9 -23 -15 -11 -25 -48 -29 -99
-1 -10 -7 -18 -15 -18 -7 0 -10 -4 -7 -10 3 -5 2 -10 -3 -10 -5 0 -9 -6 -10
-12 0 -7 -2 -30 -3 -50 -1 -21 -6 -38 -10 -38 -5 0 -6 -6 -3 -14 3 -8 0 -17
-7 -22 -8 -5 -10 -3 -4 7 5 8 4 11 0 6 -5 -4 -10 -17 -12 -29 -2 -12 -9 -26
-16 -30 -9 -6 -9 -8 1 -8 6 0 12 -4 12 -10 0 -5 -8 -6 -17 -3 -16 6 -17 5 -3
-12 8 -10 10 -16 3 -12 -7 5 -16 -1 -23 -13 -6 -11 -8 -20 -4 -20 3 0 1 -7 -6
-15 -10 -12 -10 -15 1 -16 10 0 10 -2 2 -5 -7 -3 -9 -12 -7 -19 3 -8 -6 -26
-20 -40 -14 -14 -20 -25 -13 -26 9 0 9 -2 -1 -6 -6 -2 -10 -9 -7 -14 4 -5 0
-6 -8 -3 -8 3 -14 -1 -14 -10 0 -8 5 -12 11 -9 6 4 3 -3 -7 -14 -9 -11 -14
-23 -10 -26 3 -4 1 -7 -5 -7 -6 0 -9 -6 -6 -14 3 -8 -3 -20 -13 -27 -10 -8
-18 -20 -19 -26 -3 -39 -5 -44 -14 -38 -6 3 -7 -1 -4 -9 4 -11 0 -16 -11 -16
-9 0 -13 -5 -10 -11 4 -6 -1 -17 -11 -25 -11 -9 -13 -12 -5 -8 10 5 8 -2 -5
-25 -10 -17 -22 -31 -27 -31 -4 0 -6 -4 -2 -9 3 -5 1 -12 -5 -16 -5 -3 -10 -1
-10 5 0 6 -4 9 -9 5 -6 -3 -8 -14 -6 -25 2 -11 0 -20 -5 -20 -5 0 -7 -6 -4
-13 3 -8 -3 -20 -13 -28 -17 -13 -17 -13 -3 6 12 17 12 18 0 7 -8 -7 -16 -17
-16 -22 -1 -6 -3 -12 -4 -15 -3 -6 -7 -22 -9 -35 0 -6 -4 -9 -8 -9 -21 3 -33
-2 -33 -16 0 -8 -5 -15 -11 -15 -5 0 -15 -14 -21 -30 -5 -17 -19 -35 -29 -41
-11 -5 -17 -14 -14 -19 3 -5 1 -11 -4 -15 -6 -3 -8 -12 -5 -19 3 -8 -6 -23
-20 -33 -14 -11 -22 -24 -18 -28 4 -5 2 -5 -4 -2 -7 4 -17 0 -24 -8 -7 -8 -9
-15 -6 -15 4 0 -3 -10 -16 -22 -15 -15 -17 -17 -4 -8 11 8 5 -3 -13 -25 -19
-22 -42 -43 -51 -47 -20 -7 -62 -63 -54 -70 2 -3 -4 -11 -13 -19 -16 -13 -17
-12 -4 4 19 25 8 21 -15 -5 -10 -12 -13 -18 -5 -13 9 5 12 3 9 -6 -3 -8 -11
-14 -19 -14 -24 -1 -38 -15 -32 -32 5 -12 2 -15 -10 -10 -9 3 -21 -1 -29 -11
-12 -16 -11 -16 7 -2 13 9 16 9 8 1 -6 -7 -20 -18 -31 -25 -11 -6 -46 -29 -78
-50 -33 -21 -106 -65 -164 -97 -92 -51 -106 -56 -112 -41 -4 9 -7 20 -7 24 -1
4 43 42 97 85 600 477 1067 1325 1178 2143 23 169 23 469 0 605 -45 266 -129
454 -270 603 -111 118 -267 208 -397 228 -58 10 -58 24 1 24 36 0 49 -3 44
-11z m-376 -5 c-7 -7 -108 -34 -108 -28 0 2 12 10 28 18 25 14 92 23 80 10z
m-118 -28 c0 -3 -4 -8 -10 -11 -5 -3 -10 -1 -10 4 0 6 5 11 10 11 6 0 10 -2
10 -4z m380 -36 c351 -56 570 -299 666 -740 27 -122 27 -538 1 -690 -102 -585
-342 -1129 -701 -1589 -110 -142 -290 -327 -411 -423 -55 -44 -114 -93 -131
-108 l-30 -29 -59 131 c-33 73 -97 199 -143 282 -278 499 -606 868 -1007 1132
-66 43 -122 80 -125 82 -2 2 1 6 7 10 6 4 23 48 38 97 55 180 183 474 285 651
275 479 672 885 1048 1073 152 76 326 125 462 130 19 0 64 -4 100 -9z m-500
-14 c0 -2 -7 -7 -16 -10 -8 -3 -12 -2 -9 4 6 10 25 14 25 6z m-5290 -96 c0 -5
-16 -10 -36 -10 -21 0 -33 4 -29 10 3 6 19 10 36 10 16 0 29 -4 29 -10z m226
-4 c4 -11 12 -13 31 -5 13 5 32 9 41 8 14 0 13 -2 -3 -8 -18 -7 -16 -9 12 -15
18 -4 37 -5 43 -1 5 3 10 3 10 -2 0 -4 15 -7 32 -7 18 1 38 -3 45 -8 7 -5 18
-6 25 -2 10 6 10 5 1 -7 -9 -11 -7 -14 14 -16 20 -1 23 1 12 9 -15 10 -11 9
54 -14 16 -6 40 -21 54 -34 14 -13 33 -21 45 -19 15 3 18 0 13 -13 -5 -14 -4
-15 7 -4 10 10 16 8 31 -10 10 -13 15 -16 11 -8 -7 13 -5 13 9 1 9 -7 17 -10
17 -6 0 4 10 -5 21 -19 17 -21 24 -25 30 -14 7 10 9 8 10 -7 0 -12 3 -15 6 -7
4 10 9 9 20 -5 8 -10 12 -12 8 -5 -10 20 13 14 28 -8 8 -11 17 -17 20 -13 4 3
7 1 7 -6 0 -7 4 -10 9 -7 5 4 19 -6 31 -21 12 -16 18 -22 15 -15 -11 20 31 -3
43 -24 5 -9 12 -15 15 -15 22 3 30 -3 57 -41 16 -22 30 -37 30 -33 0 4 9 0 20
-10 12 -11 28 -20 36 -21 19 -3 45 -24 40 -33 -3 -4 -1 -13 5 -21 7 -13 9 -13
9 -1 0 11 4 10 16 -5 8 -10 13 -12 9 -4 -4 8 29 -22 72 -68 43 -45 83 -82 88
-82 6 0 37 -28 70 -62 l60 -63 -61 55 c-33 30 -4 -1 65 -68 69 -68 120 -121
112 -117 -25 14 19 -43 56 -71 24 -18 33 -32 30 -45 -3 -12 5 -27 23 -43 16
-13 27 -26 24 -28 -2 -3 6 -13 18 -24 15 -12 19 -13 13 -4 -6 9 2 2 17 -15 15
-16 26 -34 25 -39 -2 -4 10 -22 25 -38 15 -17 26 -34 23 -39 -3 -4 4 -13 15
-19 12 -6 19 -17 17 -23 -2 -6 7 -22 19 -34 12 -12 21 -30 20 -39 -3 -20 24
-55 36 -48 4 3 8 0 8 -5 0 -23 2 -27 22 -48 12 -12 17 -27 13 -34 -6 -8 -4
-10 5 -4 10 6 12 4 7 -8 -3 -10 -2 -17 3 -17 6 0 10 -7 10 -15 0 -8 5 -15 11
-15 6 0 8 -7 5 -16 -3 -8 -2 -12 4 -9 6 3 11 -2 11 -12 3 -43 5 -48 16 -46 8
2 10 -4 6 -14 -5 -12 -3 -14 7 -8 10 6 12 4 7 -8 -3 -9 -1 -18 6 -20 7 -2 -7
-13 -29 -25 l-42 -21 -7 27 c-11 45 -88 202 -149 302 -218 359 -560 759 -836
980 -328 262 -616 387 -960 417 l-95 8 75 6 c134 10 140 10 146 -5z m49 -101
c296 -61 585 -227 899 -513 261 -239 598 -677 745 -969 33 -64 91 -205 91
-219 0 -2 -28 -18 -61 -35 l-62 -31 22 28 c11 14 21 37 21 50 0 32 -109 242
-190 369 -322 503 -736 891 -1185 1113 -194 96 -424 132 -615 98 -214 -39
-386 -192 -470 -418 -53 -145 -64 -215 -65 -398 0 -185 12 -280 61 -490 144
-606 514 -1204 1033 -1667 103 -92 130 -104 173 -80 15 9 28 14 28 11 0 -6
-59 -137 -65 -142 -2 -2 -21 10 -42 27 -21 17 -74 58 -118 93 -115 89 -344
322 -461 468 -473 592 -724 1216 -724 1795 0 173 9 255 40 380 26 104 107 266
165 332 81 92 244 188 360 214 62 13 329 3 420 -16z m-962 -360 c-3 -9 -8 -14
-10 -11 -3 3 -2 9 2 15 9 16 15 13 8 -4z m-36 -100 c0 -8 -4 -15 -9 -15 -10 0
-11 14 -1 23 9 10 10 9 10 -8z m-7 -34 c0 -6 -4 -13 -10 -16 -5 -3 -10 1 -10
9 0 9 5 16 10 16 6 0 10 -4 10 -9z m-34 -155 c-8 -31 -26 -35 -26 -5 0 12 4
17 11 13 8 -4 9 1 4 17 -6 19 -5 21 5 12 8 -7 10 -22 6 -37z m-11 -253 c0
-274 29 -459 112 -718 203 -634 692 -1319 1208 -1691 29 -21 29 -21 12 -48
-15 -23 -21 -25 -40 -15 -12 6 -38 29 -58 50 -20 21 -39 36 -42 33 -3 -3 -26
13 -51 37 -26 23 -44 44 -42 47 12 11 -15 41 -31 35 -12 -5 -15 -2 -10 10 7
17 -7 30 -34 32 -10 1 -32 17 -51 35 -18 19 -26 30 -18 26 8 -4 4 2 -10 13
-43 35 -60 54 -56 60 3 3 -2 15 -10 26 -8 10 -14 14 -14 9 0 -6 6 -17 12 -25
7 -7 -11 8 -40 36 -28 27 -52 55 -52 62 0 7 -6 13 -12 13 -9 0 -8 4 2 10 10 6
11 10 3 10 -7 0 -13 6 -13 14 0 20 -17 29 -26 15 -5 -8 -3 -9 6 -4 9 5 11 4 6
-4 -10 -15 -29 -3 -22 14 2 7 -4 15 -15 18 -12 3 -17 11 -13 20 6 17 -23 50
-37 42 -5 -4 -9 -2 -9 3 0 5 -11 22 -25 38 -13 15 -22 30 -20 32 2 3 -6 13
-19 23 -14 11 -22 26 -20 36 4 20 -12 44 -41 61 -13 7 -15 12 -6 12 11 0 10 5
-4 20 -10 11 -22 17 -28 13 -6 -3 -7 -1 -3 6 5 7 -5 23 -23 40 -17 16 -31 36
-31 44 0 8 -7 18 -16 21 -9 4 -14 13 -10 21 3 8 2 15 -2 15 -4 0 -8 10 -9 23
-1 12 -12 30 -24 40 -12 9 -18 17 -13 17 4 0 -3 12 -17 27 -13 15 -17 23 -9
18 14 -9 14 -8 0 5 -8 8 -14 23 -12 32 2 10 -7 28 -20 41 -13 13 -24 35 -26
48 -1 13 -8 28 -14 34 -8 7 -9 6 -3 -4 6 -10 4 -12 -4 -7 -9 6 -9 11 0 22 10
12 9 13 -5 8 -12 -4 -15 -2 -10 9 3 8 -5 25 -18 37 -13 13 -17 19 -9 15 9 -5
12 -3 9 6 -3 8 -11 13 -18 11 -7 -2 -10 3 -7 12 4 9 2 18 -4 22 -6 3 -8 12 -5
20 3 7 -4 18 -14 24 -11 6 -19 21 -19 33 1 35 -6 55 -25 76 -10 11 -16 27 -13
35 4 9 2 18 -3 21 -5 3 -7 12 -3 21 3 8 -2 23 -12 34 -9 10 -14 24 -9 31 5 8
3 10 -6 4 -9 -5 -10 -2 -5 14 4 13 2 21 -5 21 -6 0 -10 10 -9 23 4 47 -1 82
-10 68 -14 -22 -24 24 -11 49 9 16 8 20 -6 20 -12 0 -15 6 -11 22 3 12 -3 41
-14 65 -14 32 -18 54 -13 80 5 25 3 34 -4 29 -10 -6 -15 47 -13 157 0 21 -3
36 -8 33 -16 -10 -21 24 -19 132 l2 107 6 -100 6 -100 4 105 c2 58 3 119 2
135 -1 24 15 95 21 95 1 0 2 -98 2 -217z m2510 -43 c10 -11 16 -20 13 -20 -3
0 -13 9 -23 20 -10 11 -16 20 -13 20 3 0 13 -9 23 -20z m2156 -487 c-12 -20
-14 -14 -5 12 4 9 9 14 11 11 3 -2 0 -13 -6 -23z m-656 -172 c307 -62 629
-218 900 -436 242 -193 506 -506 697 -825 301 -500 523 -1152 611 -1791 l14
-96 -161 83 c-431 222 -921 385 -1396 464 -74 12 -141 24 -149 26 -7 3 13 18
45 34 178 89 325 304 402 588 25 92 26 110 26 322 0 210 -2 231 -26 321 -56
208 -132 351 -248 469 -232 234 -530 225 -755 -22 -355 -391 -345 -1189 19
-1554 39 -39 85 -80 101 -92 l30 -22 -45 7 c-25 4 -209 8 -410 8 l-365 0 45
36 c286 227 414 721 306 1174 -91 376 -339 635 -611 635 -327 0 -606 -367
-644 -847 -28 -353 72 -686 269 -897 45 -49 140 -119 182 -135 21 -8 20 -9
-12 -15 -98 -16 -328 -58 -346 -62 -48 -12 -230 218 -313 397 -279 599 -119
1368 361 1729 153 116 318 177 500 187 199 11 388 -41 545 -148 23 -16 46 -29
51 -29 5 0 46 22 90 49 162 97 324 138 510 128 720 -38 1193 -940 922 -1758
-62 -187 -135 -318 -265 -474 l-67 -80 67 69 c154 158 269 389 327 660 30 139
32 434 4 581 -69 370 -265 686 -535 864 -157 103 -316 152 -496 153 -188 0
-340 -44 -502 -148 l-52 -33 -81 49 c-152 91 -290 131 -460 131 -194 1 -347
-45 -508 -151 -274 -181 -464 -486 -539 -865 -27 -138 -24 -445 5 -581 58
-267 171 -497 327 -663 44 -46 63 -72 54 -75 -8 -3 -63 -17 -124 -31 -352 -82
-752 -229 -1062 -389 -70 -36 -129 -63 -132 -61 -10 11 61 400 109 593 165
663 425 1214 784 1661 374 466 844 771 1322 860 160 30 153 29 369 26 159 -2
223 -7 310 -24z m588 -31 c-3 -11 -9 -20 -15 -20 -5 0 -4 9 2 20 6 11 12 20
14 20 2 0 2 -9 -1 -20z m-1471 -671 c228 -48 422 -285 506 -618 25 -98 27
-122 27 -311 0 -189 -2 -213 -27 -311 -52 -206 -130 -353 -253 -474 -99 -99
-127 -110 -315 -125 -175 -13 -185 -11 -289 60 -147 99 -268 297 -327 534 -31
125 -43 366 -25 497 70 491 375 817 703 748z m1333 -4 c260 -68 461 -357 514
-740 16 -110 13 -295 -4 -405 -33 -198 -122 -402 -230 -525 l-44 -50 26 70
c37 99 39 258 4 358 -25 75 -66 134 -124 181 -32 26 -48 31 -105 34 -60 3 -72
1 -113 -26 -55 -35 -103 -101 -132 -180 -26 -72 -34 -223 -17 -301 25 -113 94
-216 171 -254 41 -20 35 -20 -112 -3 -141 17 -180 36 -285 140 -113 113 -201
282 -246 475 -29 127 -36 387 -13 522 80 478 391 787 710 704z m163 -1501 c35
-24 54 -71 54 -135 0 -131 -100 -195 -166 -106 -25 34 -34 142 -16 187 25 61
83 86 128 54z m-428 -419 c1110 -111 2068 -514 2685 -1130 207 -206 351 -404
466 -638 175 -358 231 -711 173 -1087 -70 -454 -327 -899 -729 -1263 -628
-568 -1507 -925 -2558 -1039 -169 -18 -262 -22 -572 -22 -438 -1 -649 16
-1030 85 -1025 185 -1906 654 -2416 1289 -28 36 -85 115 -126 177 -345 521
-422 1118 -216 1673 276 745 1035 1375 2066 1714 386 127 820 214 1232 246 77
6 160 12 185 14 107 9 695 -4 840 -19z"/>
<path d="M8205 9770 c27 -12 43 -12 25 0 -8 5 -22 9 -30 9 -10 0 -8 -3 5 -9z"/>
<path d="M8451 9653 c7 -12 15 -20 18 -17 3 2 -3 12 -13 22 -17 16 -18 16 -5
-5z"/>
<path d="M8620 9486 c0 -2 8 -10 18 -17 15 -13 16 -12 3 4 -13 16 -21 21 -21
13z"/>
<path d="M8785 7950 c-3 -5 -1 -10 4 -10 6 0 11 5 11 10 0 6 -2 10 -4 10 -3 0
-8 -4 -11 -10z"/>
<path d="M8169 6643 c-13 -16 -12 -17 4 -4 9 7 17 15 17 17 0 8 -8 3 -21 -13z"/>
<path d="M7815 9579 c-76 -11 -123 -28 -259 -96 -189 -93 -338 -204 -526 -393
-265 -264 -484 -590 -650 -965 -115 -260 -138 -342 -111 -393 6 -11 62 -60
124 -108 423 -329 705 -672 972 -1179 91 -173 111 -193 168 -164 44 23 185
149 270 240 391 424 671 953 806 1524 52 224 65 330 65 560 0 227 -11 314 -60
470 -70 221 -204 390 -374 472 -78 38 -279 53 -425 32z"/>
<path d="M3125 9340 c-3 -5 1 -10 10 -10 9 0 13 5 10 10 -3 6 -8 10 -10 10 -2
0 -7 -4 -10 -10z"/>
<path d="M3740 8806 c0 -2 7 -7 16 -10 8 -3 12 -2 9 4 -6 10 -25 14 -25 6z"/>
<path d="M3796 8757 c3 -10 9 -15 12 -12 3 3 0 11 -7 18 -10 9 -11 8 -5 -6z"/>
<path d="M3910 8626 c0 -2 8 -10 18 -17 15 -13 16 -12 3 4 -13 16 -21 21 -21
13z"/>
<path d="M2040 6886 c0 -2 8 -10 18 -17 15 -13 16 -12 3 4 -13 16 -21 21 -21
13z"/>
<path d="M2290 6575 c13 -14 26 -25 28 -25 3 0 -5 11 -18 25 -13 14 -26 25
-28 25 -3 0 5 -11 18 -25z"/>
<path d="M2580 6293 c0 -5 10 -18 23 -29 l22 -19 -20 25 c-11 14 -21 27 -22
29 -2 2 -3 0 -3 -6z"/>
<path d="M4490 6184 c-113 -49 -190 -202 -190 -379 0 -222 113 -389 265 -389
217 0 340 367 210 624 -67 133 -180 190 -285 144z m222 -421 c38 -34 54 -154
27 -205 -46 -91 -121 -91 -168 -1 -16 32 -13 130 5 169 29 60 92 77 136 37z"/>
<path d="M4805 4590 c-649 -72 -1186 -348 -1450 -744 -64 -96 -96 -165 -132
-285 -23 -76 -26 -103 -26 -231 0 -168 16 -245 82 -385 186 -396 656 -713
1242 -835 274 -57 648 -72 909 -36 674 91 1216 405 1437 832 73 141 95 228
100 394 4 131 2 155 -21 242 -131 509 -699 913 -1448 1029 -150 24 -552 34
-693 19z"/>
<path d="M3049 2313 c-16 -80 -13 -272 5 -368 9 -44 16 -103 16 -130 0 -28 9
-82 20 -120 11 -38 20 -79 20 -90 0 -11 9 -37 20 -58 11 -20 20 -44 20 -53 0
-9 9 -33 20 -53 11 -20 24 -47 30 -61 11 -28 15 -34 79 -135 63 -98 112 -157
218 -260 123 -120 190 -175 212 -175 6 0 14 -6 18 -13 7 -11 36 -31 118 -83
57 -35 166 -92 260 -134 22 -10 61 -28 86 -39 25 -12 54 -21 63 -21 9 0 34 -9
56 -20 22 -11 52 -20 67 -20 15 0 42 -7 58 -16 17 -9 59 -20 94 -25 36 -5 83
-15 105 -23 23 -7 82 -16 132 -20 50 -4 106 -11 125 -16 54 -16 344 -23 444
-11 50 6 133 15 185 21 52 6 115 16 140 21 25 6 79 17 120 25 41 8 89 21 107
29 17 8 43 15 57 15 15 0 44 9 66 20 22 11 47 20 56 20 9 0 38 9 63 21 25 11
64 29 86 39 51 23 161 78 200 99 45 25 165 101 175 111 3 3 28 21 55 40 61 41
97 73 189 165 101 101 206 230 206 254 0 4 9 16 20 26 11 10 20 24 20 30 0 7
8 23 19 36 10 13 22 35 26 49 4 14 13 32 20 40 7 8 16 31 20 50 4 19 13 44 21
55 7 11 17 43 23 70 5 28 17 75 26 105 13 44 15 95 13 252 -3 184 -4 198 -24
220 -14 15 -24 43 -28 83 -11 96 -15 107 -43 103 -21 -3 -28 -13 -47 -73 -146
-460 -669 -848 -1349 -999 -236 -52 -322 -61 -632 -61 -306 0 -382 7 -600 52
-707 146 -1242 533 -1396 1011 -19 61 -26 72 -45 72 -19 0 -24 -8 -35 -57z
m4102 -256 c-21 -192 -90 -361 -216 -528 -425 -565 -1391 -862 -2308 -708
-506 85 -931 289 -1217 585 -155 160 -253 326 -301 511 -24 90 -38 316 -21
327 6 3 14 -4 18 -16 3 -13 24 -59 46 -103 127 -256 395 -503 726 -669 385
-193 823 -284 1312 -273 565 14 1055 162 1439 435 227 161 429 402 498 595
l18 50 9 -49 c6 -32 5 -86 -3 -157z"/>
</g>
</svg>
